<mxfile host="app.diagrams.net" modified="2022-03-21T03:43:51.424Z" agent="5.0 (Macintosh; Intel Mac OS X 10_15_7) AppleWebKit/537.36 (KHTML, like Gecko) Chrome/99.0.4844.74 Safari/537.36" etag="NTwO221LwPX-5DcBvdX5" version="17.1.3" type="github">
  <diagram id="JrCY9K2GYsq4E4nVsS9o" name="Page-1">
    <mxGraphModel dx="1906" dy="1046" grid="1" gridSize="10" guides="1" tooltips="1" connect="1" arrows="1" fold="1" page="1" pageScale="1" pageWidth="850" pageHeight="1100" math="0" shadow="0">
      <root>
        <mxCell id="0" />
        <mxCell id="1" parent="0" />
        <mxCell id="8Hs22Ey8dxyv864Q2J5C-102" value="ET web portal" style="rounded=0;whiteSpace=wrap;html=1;verticalAlign=top;fontSize=19;" vertex="1" parent="1">
          <mxGeometry x="420" y="22" width="900" height="838" as="geometry" />
        </mxCell>
        <mxCell id="8Hs22Ey8dxyv864Q2J5C-12" style="edgeStyle=none;rounded=0;orthogonalLoop=1;jettySize=auto;html=1;entryX=0;entryY=0.5;entryDx=0;entryDy=0;endArrow=none;endFill=0;" edge="1" parent="1" source="YUbiX7tR2mCTqFT4cm0z-1" target="8Hs22Ey8dxyv864Q2J5C-6">
          <mxGeometry relative="1" as="geometry" />
        </mxCell>
        <mxCell id="8Hs22Ey8dxyv864Q2J5C-13" style="edgeStyle=none;rounded=0;orthogonalLoop=1;jettySize=auto;html=1;entryX=0;entryY=0.5;entryDx=0;entryDy=0;endArrow=none;endFill=0;" edge="1" parent="1" source="YUbiX7tR2mCTqFT4cm0z-1" target="8Hs22Ey8dxyv864Q2J5C-7">
          <mxGeometry relative="1" as="geometry" />
        </mxCell>
        <mxCell id="8Hs22Ey8dxyv864Q2J5C-18" style="edgeStyle=none;rounded=0;orthogonalLoop=1;jettySize=auto;html=1;entryX=0;entryY=0.5;entryDx=0;entryDy=0;endArrow=none;endFill=0;" edge="1" parent="1" source="YUbiX7tR2mCTqFT4cm0z-1" target="8Hs22Ey8dxyv864Q2J5C-17">
          <mxGeometry relative="1" as="geometry" />
        </mxCell>
        <mxCell id="8Hs22Ey8dxyv864Q2J5C-20" style="edgeStyle=none;rounded=0;orthogonalLoop=1;jettySize=auto;html=1;entryX=0;entryY=0.5;entryDx=0;entryDy=0;endArrow=none;endFill=0;" edge="1" parent="1" source="YUbiX7tR2mCTqFT4cm0z-1" target="8Hs22Ey8dxyv864Q2J5C-14">
          <mxGeometry relative="1" as="geometry" />
        </mxCell>
        <mxCell id="8Hs22Ey8dxyv864Q2J5C-33" style="edgeStyle=none;rounded=0;orthogonalLoop=1;jettySize=auto;html=1;entryX=0;entryY=0.5;entryDx=0;entryDy=0;endArrow=none;endFill=0;" edge="1" parent="1" source="YUbiX7tR2mCTqFT4cm0z-1" target="8Hs22Ey8dxyv864Q2J5C-31">
          <mxGeometry relative="1" as="geometry" />
        </mxCell>
        <mxCell id="8Hs22Ey8dxyv864Q2J5C-35" style="edgeStyle=none;rounded=0;orthogonalLoop=1;jettySize=auto;html=1;entryX=0;entryY=0.5;entryDx=0;entryDy=0;endArrow=none;endFill=0;" edge="1" parent="1" source="YUbiX7tR2mCTqFT4cm0z-1" target="8Hs22Ey8dxyv864Q2J5C-28">
          <mxGeometry relative="1" as="geometry" />
        </mxCell>
        <mxCell id="8Hs22Ey8dxyv864Q2J5C-36" style="edgeStyle=none;rounded=0;orthogonalLoop=1;jettySize=auto;html=1;entryX=0;entryY=0.5;entryDx=0;entryDy=0;endArrow=none;endFill=0;" edge="1" parent="1" source="YUbiX7tR2mCTqFT4cm0z-1" target="8Hs22Ey8dxyv864Q2J5C-34">
          <mxGeometry relative="1" as="geometry" />
        </mxCell>
        <mxCell id="8Hs22Ey8dxyv864Q2J5C-43" style="edgeStyle=none;rounded=0;orthogonalLoop=1;jettySize=auto;html=1;entryX=0;entryY=0.5;entryDx=0;entryDy=0;endArrow=none;endFill=0;" edge="1" parent="1" source="YUbiX7tR2mCTqFT4cm0z-1" target="8Hs22Ey8dxyv864Q2J5C-41">
          <mxGeometry relative="1" as="geometry" />
        </mxCell>
        <mxCell id="8Hs22Ey8dxyv864Q2J5C-51" style="edgeStyle=none;rounded=0;orthogonalLoop=1;jettySize=auto;html=1;endArrow=block;endFill=0;" edge="1" parent="1" source="YUbiX7tR2mCTqFT4cm0z-1">
          <mxGeometry relative="1" as="geometry">
            <mxPoint x="150" y="580" as="targetPoint" />
          </mxGeometry>
        </mxCell>
        <mxCell id="8Hs22Ey8dxyv864Q2J5C-75" style="edgeStyle=none;rounded=0;orthogonalLoop=1;jettySize=auto;html=1;entryX=0;entryY=0.5;entryDx=0;entryDy=0;endArrow=none;endFill=0;" edge="1" parent="1" source="YUbiX7tR2mCTqFT4cm0z-1" target="8Hs22Ey8dxyv864Q2J5C-72">
          <mxGeometry relative="1" as="geometry" />
        </mxCell>
        <mxCell id="8Hs22Ey8dxyv864Q2J5C-76" style="edgeStyle=none;rounded=0;orthogonalLoop=1;jettySize=auto;html=1;entryX=0;entryY=0.5;entryDx=0;entryDy=0;endArrow=none;endFill=0;" edge="1" parent="1" source="YUbiX7tR2mCTqFT4cm0z-1" target="8Hs22Ey8dxyv864Q2J5C-73">
          <mxGeometry relative="1" as="geometry" />
        </mxCell>
        <mxCell id="YUbiX7tR2mCTqFT4cm0z-1" value="Users&lt;br&gt;(logged in)&lt;br&gt;" style="shape=umlActor;verticalLabelPosition=bottom;verticalAlign=top;html=1;movable=1;resizable=1;rotatable=1;deletable=1;editable=1;connectable=1;" parent="1" vertex="1">
          <mxGeometry x="280" y="470" width="30" height="60" as="geometry" />
        </mxCell>
        <mxCell id="8Hs22Ey8dxyv864Q2J5C-58" style="edgeStyle=none;rounded=0;orthogonalLoop=1;jettySize=auto;html=1;entryX=1;entryY=1;entryDx=0;entryDy=0;endArrow=none;endFill=0;" edge="1" parent="1" source="8Hs22Ey8dxyv864Q2J5C-3" target="8Hs22Ey8dxyv864Q2J5C-54">
          <mxGeometry relative="1" as="geometry" />
        </mxCell>
        <mxCell id="8Hs22Ey8dxyv864Q2J5C-59" style="edgeStyle=none;rounded=0;orthogonalLoop=1;jettySize=auto;html=1;entryX=1;entryY=0.5;entryDx=0;entryDy=0;endArrow=none;endFill=0;" edge="1" parent="1" source="8Hs22Ey8dxyv864Q2J5C-3" target="8Hs22Ey8dxyv864Q2J5C-53">
          <mxGeometry relative="1" as="geometry" />
        </mxCell>
        <mxCell id="8Hs22Ey8dxyv864Q2J5C-60" style="edgeStyle=none;rounded=0;orthogonalLoop=1;jettySize=auto;html=1;entryX=1;entryY=0.5;entryDx=0;entryDy=0;endArrow=none;endFill=0;" edge="1" parent="1" source="8Hs22Ey8dxyv864Q2J5C-3" target="8Hs22Ey8dxyv864Q2J5C-55">
          <mxGeometry relative="1" as="geometry" />
        </mxCell>
        <mxCell id="8Hs22Ey8dxyv864Q2J5C-61" style="edgeStyle=none;rounded=0;orthogonalLoop=1;jettySize=auto;html=1;entryX=1;entryY=0.5;entryDx=0;entryDy=0;endArrow=none;endFill=0;" edge="1" parent="1" source="8Hs22Ey8dxyv864Q2J5C-3" target="8Hs22Ey8dxyv864Q2J5C-56">
          <mxGeometry relative="1" as="geometry" />
        </mxCell>
        <mxCell id="8Hs22Ey8dxyv864Q2J5C-62" style="edgeStyle=none;rounded=0;orthogonalLoop=1;jettySize=auto;html=1;entryX=1;entryY=0.5;entryDx=0;entryDy=0;endArrow=none;endFill=0;" edge="1" parent="1" source="8Hs22Ey8dxyv864Q2J5C-3" target="8Hs22Ey8dxyv864Q2J5C-57">
          <mxGeometry relative="1" as="geometry" />
        </mxCell>
        <mxCell id="8Hs22Ey8dxyv864Q2J5C-65" style="edgeStyle=none;rounded=0;orthogonalLoop=1;jettySize=auto;html=1;entryX=1;entryY=0.5;entryDx=0;entryDy=0;endArrow=none;endFill=0;" edge="1" parent="1" source="8Hs22Ey8dxyv864Q2J5C-3" target="8Hs22Ey8dxyv864Q2J5C-63">
          <mxGeometry relative="1" as="geometry" />
        </mxCell>
        <mxCell id="8Hs22Ey8dxyv864Q2J5C-66" style="edgeStyle=none;rounded=0;orthogonalLoop=1;jettySize=auto;html=1;entryX=1;entryY=0.5;entryDx=0;entryDy=0;endArrow=none;endFill=0;" edge="1" parent="1" source="8Hs22Ey8dxyv864Q2J5C-3" target="8Hs22Ey8dxyv864Q2J5C-64">
          <mxGeometry relative="1" as="geometry" />
        </mxCell>
        <mxCell id="8Hs22Ey8dxyv864Q2J5C-3" value="ET staff" style="shape=umlActor;verticalLabelPosition=bottom;verticalAlign=top;html=1;" vertex="1" parent="1">
          <mxGeometry x="1380" y="335" width="30" height="60" as="geometry" />
        </mxCell>
        <mxCell id="8Hs22Ey8dxyv864Q2J5C-6" value="Upload design" style="ellipse;whiteSpace=wrap;html=1;" vertex="1" parent="1">
          <mxGeometry x="530" y="76" width="130" height="60" as="geometry" />
        </mxCell>
        <mxCell id="8Hs22Ey8dxyv864Q2J5C-7" value="Design image&lt;br&gt;using templates" style="ellipse;whiteSpace=wrap;html=1;" vertex="1" parent="1">
          <mxGeometry x="530" y="146" width="130" height="60" as="geometry" />
        </mxCell>
        <mxCell id="8Hs22Ey8dxyv864Q2J5C-8" value="Login" style="ellipse;whiteSpace=wrap;html=1;" vertex="1" parent="1">
          <mxGeometry x="750" y="302" width="130" height="60" as="geometry" />
        </mxCell>
        <mxCell id="8Hs22Ey8dxyv864Q2J5C-14" value="Vote on design" style="ellipse;whiteSpace=wrap;html=1;" vertex="1" parent="1">
          <mxGeometry x="530" y="286" width="130" height="60" as="geometry" />
        </mxCell>
        <mxCell id="8Hs22Ey8dxyv864Q2J5C-17" value="Cash out&lt;br&gt;ET credits" style="ellipse;whiteSpace=wrap;html=1;" vertex="1" parent="1">
          <mxGeometry x="530" y="216" width="130" height="60" as="geometry" />
        </mxCell>
        <mxCell id="8Hs22Ey8dxyv864Q2J5C-22" value="Create account" style="ellipse;whiteSpace=wrap;html=1;" vertex="1" parent="1">
          <mxGeometry x="750" y="234" width="130" height="60" as="geometry" />
        </mxCell>
        <mxCell id="8Hs22Ey8dxyv864Q2J5C-26" style="edgeStyle=none;rounded=0;orthogonalLoop=1;jettySize=auto;html=1;entryX=0;entryY=0.5;entryDx=0;entryDy=0;endArrow=none;endFill=0;" edge="1" parent="1" source="8Hs22Ey8dxyv864Q2J5C-24" target="8Hs22Ey8dxyv864Q2J5C-22">
          <mxGeometry relative="1" as="geometry" />
        </mxCell>
        <mxCell id="8Hs22Ey8dxyv864Q2J5C-27" style="edgeStyle=none;rounded=0;orthogonalLoop=1;jettySize=auto;html=1;endArrow=none;endFill=0;entryX=0;entryY=0.5;entryDx=0;entryDy=0;" edge="1" parent="1" source="8Hs22Ey8dxyv864Q2J5C-24" target="8Hs22Ey8dxyv864Q2J5C-8">
          <mxGeometry relative="1" as="geometry">
            <mxPoint x="610" y="285" as="targetPoint" />
          </mxGeometry>
        </mxCell>
        <mxCell id="8Hs22Ey8dxyv864Q2J5C-30" style="edgeStyle=none;rounded=0;orthogonalLoop=1;jettySize=auto;html=1;entryX=0;entryY=0.5;entryDx=0;entryDy=0;endArrow=none;endFill=0;" edge="1" parent="1" source="8Hs22Ey8dxyv864Q2J5C-24" target="8Hs22Ey8dxyv864Q2J5C-28">
          <mxGeometry relative="1" as="geometry" />
        </mxCell>
        <mxCell id="8Hs22Ey8dxyv864Q2J5C-32" style="edgeStyle=none;rounded=0;orthogonalLoop=1;jettySize=auto;html=1;entryX=0;entryY=0.5;entryDx=0;entryDy=0;endArrow=none;endFill=0;" edge="1" parent="1" source="8Hs22Ey8dxyv864Q2J5C-24" target="8Hs22Ey8dxyv864Q2J5C-31">
          <mxGeometry relative="1" as="geometry" />
        </mxCell>
        <mxCell id="8Hs22Ey8dxyv864Q2J5C-37" style="edgeStyle=none;rounded=0;orthogonalLoop=1;jettySize=auto;html=1;entryX=0;entryY=0.5;entryDx=0;entryDy=0;endArrow=none;endFill=0;" edge="1" parent="1" source="8Hs22Ey8dxyv864Q2J5C-24" target="8Hs22Ey8dxyv864Q2J5C-34">
          <mxGeometry relative="1" as="geometry" />
        </mxCell>
        <mxCell id="8Hs22Ey8dxyv864Q2J5C-42" style="edgeStyle=none;rounded=0;orthogonalLoop=1;jettySize=auto;html=1;entryX=0;entryY=0.5;entryDx=0;entryDy=0;endArrow=none;endFill=0;" edge="1" parent="1" source="8Hs22Ey8dxyv864Q2J5C-24" target="8Hs22Ey8dxyv864Q2J5C-41">
          <mxGeometry relative="1" as="geometry" />
        </mxCell>
        <mxCell id="8Hs22Ey8dxyv864Q2J5C-74" style="edgeStyle=none;rounded=0;orthogonalLoop=1;jettySize=auto;html=1;entryX=0;entryY=0.5;entryDx=0;entryDy=0;endArrow=none;endFill=0;" edge="1" parent="1" source="8Hs22Ey8dxyv864Q2J5C-24" target="8Hs22Ey8dxyv864Q2J5C-72">
          <mxGeometry relative="1" as="geometry" />
        </mxCell>
        <mxCell id="8Hs22Ey8dxyv864Q2J5C-24" value="Users&lt;br&gt;(not logged in)" style="shape=umlActor;verticalLabelPosition=bottom;verticalAlign=top;html=1;movable=1;resizable=1;rotatable=1;deletable=1;editable=1;connectable=1;" vertex="1" parent="1">
          <mxGeometry x="280" y="620" width="30" height="60" as="geometry" />
        </mxCell>
        <mxCell id="8Hs22Ey8dxyv864Q2J5C-28" value="Select T-shirt&lt;br&gt;specification" style="ellipse;whiteSpace=wrap;html=1;" vertex="1" parent="1">
          <mxGeometry x="750" y="440" width="130" height="60" as="geometry" />
        </mxCell>
        <mxCell id="8Hs22Ey8dxyv864Q2J5C-31" value="Browse design&lt;br&gt;by category" style="ellipse;whiteSpace=wrap;html=1;" vertex="1" parent="1">
          <mxGeometry x="750" y="369" width="130" height="60" as="geometry" />
        </mxCell>
        <mxCell id="8Hs22Ey8dxyv864Q2J5C-34" value="Add T-shirt&lt;br&gt;to cart" style="ellipse;whiteSpace=wrap;html=1;" vertex="1" parent="1">
          <mxGeometry x="750" y="510" width="130" height="60" as="geometry" />
        </mxCell>
        <mxCell id="8Hs22Ey8dxyv864Q2J5C-89" style="edgeStyle=none;rounded=0;orthogonalLoop=1;jettySize=auto;html=1;startArrow=classic;startFill=1;endArrow=none;endFill=0;exitX=0;exitY=0.5;exitDx=0;exitDy=0;entryX=1;entryY=0;entryDx=0;entryDy=0;" edge="1" parent="1" source="8Hs22Ey8dxyv864Q2J5C-87" target="8Hs22Ey8dxyv864Q2J5C-97">
          <mxGeometry relative="1" as="geometry" />
        </mxCell>
        <mxCell id="8Hs22Ey8dxyv864Q2J5C-90" style="edgeStyle=none;rounded=0;orthogonalLoop=1;jettySize=auto;html=1;startArrow=classic;startFill=1;endArrow=none;endFill=0;exitX=0;exitY=0.5;exitDx=0;exitDy=0;entryX=0.969;entryY=0.726;entryDx=0;entryDy=0;entryPerimeter=0;" edge="1" parent="1" source="8Hs22Ey8dxyv864Q2J5C-46" target="8Hs22Ey8dxyv864Q2J5C-97">
          <mxGeometry relative="1" as="geometry" />
        </mxCell>
        <mxCell id="8Hs22Ey8dxyv864Q2J5C-91" style="edgeStyle=none;rounded=0;orthogonalLoop=1;jettySize=auto;html=1;startArrow=classic;startFill=1;endArrow=none;endFill=0;exitX=0.5;exitY=0;exitDx=0;exitDy=0;" edge="1" parent="1" source="8Hs22Ey8dxyv864Q2J5C-97" target="8Hs22Ey8dxyv864Q2J5C-41">
          <mxGeometry relative="1" as="geometry" />
        </mxCell>
        <mxCell id="8Hs22Ey8dxyv864Q2J5C-41" value="Check out cart" style="ellipse;whiteSpace=wrap;html=1;" vertex="1" parent="1">
          <mxGeometry x="750" y="580" width="130" height="60" as="geometry" />
        </mxCell>
        <mxCell id="8Hs22Ey8dxyv864Q2J5C-81" style="edgeStyle=none;rounded=0;orthogonalLoop=1;jettySize=auto;html=1;entryX=1;entryY=0.5;entryDx=0;entryDy=0;endArrow=none;endFill=0;exitX=0;exitY=1;exitDx=0;exitDy=0;startArrow=classic;startFill=1;" edge="1" parent="1" source="8Hs22Ey8dxyv864Q2J5C-80" target="8Hs22Ey8dxyv864Q2J5C-44">
          <mxGeometry relative="1" as="geometry">
            <mxPoint x="1120.0021385129262" y="646.0311824718533" as="targetPoint" />
          </mxGeometry>
        </mxCell>
        <mxCell id="8Hs22Ey8dxyv864Q2J5C-44" value="Pay by&amp;nbsp;&lt;br&gt;ET credits" style="ellipse;whiteSpace=wrap;html=1;" vertex="1" parent="1">
          <mxGeometry x="920" y="766" width="130" height="60" as="geometry" />
        </mxCell>
        <mxCell id="8Hs22Ey8dxyv864Q2J5C-82" style="edgeStyle=none;rounded=0;orthogonalLoop=1;jettySize=auto;html=1;endArrow=none;endFill=0;startArrow=classic;startFill=1;exitX=0.038;exitY=0.726;exitDx=0;exitDy=0;exitPerimeter=0;" edge="1" parent="1" source="8Hs22Ey8dxyv864Q2J5C-80" target="8Hs22Ey8dxyv864Q2J5C-46">
          <mxGeometry relative="1" as="geometry">
            <mxPoint x="1100" y="680" as="sourcePoint" />
          </mxGeometry>
        </mxCell>
        <mxCell id="8Hs22Ey8dxyv864Q2J5C-46" value="Pay by&amp;nbsp;&lt;br&gt;ET points" style="ellipse;whiteSpace=wrap;html=1;" vertex="1" parent="1">
          <mxGeometry x="920" y="700" width="130" height="60" as="geometry" />
        </mxCell>
        <mxCell id="8Hs22Ey8dxyv864Q2J5C-49" value="Users" style="shape=umlActor;verticalLabelPosition=bottom;verticalAlign=top;html=1;movable=1;resizable=1;rotatable=1;deletable=1;editable=1;connectable=1;" vertex="1" parent="1">
          <mxGeometry x="110" y="550" width="30" height="60" as="geometry" />
        </mxCell>
        <mxCell id="8Hs22Ey8dxyv864Q2J5C-52" style="edgeStyle=none;rounded=0;orthogonalLoop=1;jettySize=auto;html=1;endArrow=block;endFill=0;" edge="1" parent="1">
          <mxGeometry relative="1" as="geometry">
            <mxPoint x="160" y="600" as="targetPoint" />
            <mxPoint x="260" y="660" as="sourcePoint" />
          </mxGeometry>
        </mxCell>
        <mxCell id="8Hs22Ey8dxyv864Q2J5C-53" value="Specify the&lt;br&gt;voting duration" style="ellipse;whiteSpace=wrap;html=1;" vertex="1" parent="1">
          <mxGeometry x="919.9999999999999" y="156" width="130" height="60" as="geometry" />
        </mxCell>
        <mxCell id="8Hs22Ey8dxyv864Q2J5C-54" value="Login as&lt;br&gt;employee" style="ellipse;whiteSpace=wrap;html=1;" vertex="1" parent="1">
          <mxGeometry x="919.9999999999999" y="82" width="130" height="60" as="geometry" />
        </mxCell>
        <mxCell id="8Hs22Ey8dxyv864Q2J5C-55" value="Specify the&lt;br&gt;minimum ET credit&amp;nbsp;&lt;br&gt;to cash out" style="ellipse;whiteSpace=wrap;html=1;" vertex="1" parent="1">
          <mxGeometry x="919.9999999999999" y="226" width="130" height="80" as="geometry" />
        </mxCell>
        <mxCell id="8Hs22Ey8dxyv864Q2J5C-56" value="Specify the&lt;br&gt;ET credit for&lt;br&gt;per T-shirt sold" style="ellipse;whiteSpace=wrap;html=1;" vertex="1" parent="1">
          <mxGeometry x="919.9999999999999" y="316" width="130" height="80" as="geometry" />
        </mxCell>
        <mxCell id="8Hs22Ey8dxyv864Q2J5C-57" value="Delete T-shirt&lt;br&gt;design" style="ellipse;whiteSpace=wrap;html=1;" vertex="1" parent="1">
          <mxGeometry x="919.9999999999999" y="406" width="130" height="60" as="geometry" />
        </mxCell>
        <mxCell id="8Hs22Ey8dxyv864Q2J5C-63" value="Add design&lt;br&gt;to T-shirt store" style="ellipse;whiteSpace=wrap;html=1;" vertex="1" parent="1">
          <mxGeometry x="919.9999999999999" y="476" width="130" height="60" as="geometry" />
        </mxCell>
        <mxCell id="8Hs22Ey8dxyv864Q2J5C-64" value="Remove design&lt;br&gt;from T-shirt store" style="ellipse;whiteSpace=wrap;html=1;" vertex="1" parent="1">
          <mxGeometry x="919.9999999999999" y="546" width="130" height="60" as="geometry" />
        </mxCell>
        <mxCell id="8Hs22Ey8dxyv864Q2J5C-85" style="edgeStyle=none;rounded=0;orthogonalLoop=1;jettySize=auto;html=1;endArrow=none;endFill=0;startArrow=classic;startFill=1;entryX=1;entryY=0.5;entryDx=0;entryDy=0;" edge="1" parent="1" source="8Hs22Ey8dxyv864Q2J5C-67" target="8Hs22Ey8dxyv864Q2J5C-80">
          <mxGeometry relative="1" as="geometry" />
        </mxCell>
        <mxCell id="8Hs22Ey8dxyv864Q2J5C-67" value="Email&lt;br&gt;System" style="shape=umlActor;verticalLabelPosition=bottom;verticalAlign=top;html=1;" vertex="1" parent="1">
          <mxGeometry x="1380" y="587" width="30" height="60" as="geometry" />
        </mxCell>
        <mxCell id="8Hs22Ey8dxyv864Q2J5C-79" style="edgeStyle=none;rounded=0;orthogonalLoop=1;jettySize=auto;html=1;entryX=1;entryY=0.5;entryDx=0;entryDy=0;endArrow=none;endFill=0;" edge="1" parent="1" source="8Hs22Ey8dxyv864Q2J5C-70" target="8Hs22Ey8dxyv864Q2J5C-78">
          <mxGeometry relative="1" as="geometry" />
        </mxCell>
        <mxCell id="8Hs22Ey8dxyv864Q2J5C-86" style="edgeStyle=none;rounded=0;orthogonalLoop=1;jettySize=auto;html=1;entryX=1;entryY=0.5;entryDx=0;entryDy=0;endArrow=none;endFill=0;startArrow=classic;startFill=1;" edge="1" parent="1" source="8Hs22Ey8dxyv864Q2J5C-70" target="8Hs22Ey8dxyv864Q2J5C-80">
          <mxGeometry relative="1" as="geometry" />
        </mxCell>
        <mxCell id="8Hs22Ey8dxyv864Q2J5C-70" value="Plant&lt;br&gt;system" style="shape=umlActor;verticalLabelPosition=bottom;verticalAlign=top;html=1;" vertex="1" parent="1">
          <mxGeometry x="1385" y="705" width="30" height="60" as="geometry" />
        </mxCell>
        <mxCell id="8Hs22Ey8dxyv864Q2J5C-72" value="Check&lt;br&gt;order status" style="ellipse;whiteSpace=wrap;html=1;" vertex="1" parent="1">
          <mxGeometry x="640" y="706" width="130" height="60" as="geometry" />
        </mxCell>
        <mxCell id="8Hs22Ey8dxyv864Q2J5C-73" value="Check&lt;br&gt;order history" style="ellipse;whiteSpace=wrap;html=1;" vertex="1" parent="1">
          <mxGeometry x="640" y="642" width="130" height="60" as="geometry" />
        </mxCell>
        <mxCell id="8Hs22Ey8dxyv864Q2J5C-78" value="Update&lt;br&gt;order status" style="ellipse;whiteSpace=wrap;html=1;" vertex="1" parent="1">
          <mxGeometry x="1090" y="730" width="130" height="60" as="geometry" />
        </mxCell>
        <mxCell id="8Hs22Ey8dxyv864Q2J5C-80" value="Generate&lt;br&gt;Order" style="ellipse;whiteSpace=wrap;html=1;" vertex="1" parent="1">
          <mxGeometry x="1090" y="640" width="130" height="60" as="geometry" />
        </mxCell>
        <mxCell id="8Hs22Ey8dxyv864Q2J5C-88" style="edgeStyle=none;rounded=0;orthogonalLoop=1;jettySize=auto;html=1;startArrow=classic;startFill=1;endArrow=none;endFill=0;exitX=0;exitY=0.5;exitDx=0;exitDy=0;" edge="1" parent="1" source="8Hs22Ey8dxyv864Q2J5C-80" target="8Hs22Ey8dxyv864Q2J5C-87">
          <mxGeometry relative="1" as="geometry" />
        </mxCell>
        <mxCell id="8Hs22Ey8dxyv864Q2J5C-87" value="Check out with&lt;br&gt;credit card" style="ellipse;whiteSpace=wrap;html=1;" vertex="1" parent="1">
          <mxGeometry x="920" y="624" width="130" height="60" as="geometry" />
        </mxCell>
        <mxCell id="8Hs22Ey8dxyv864Q2J5C-94" style="edgeStyle=none;rounded=0;orthogonalLoop=1;jettySize=auto;html=1;entryX=1;entryY=0;entryDx=0;entryDy=0;startArrow=classic;startFill=1;endArrow=none;endFill=0;" edge="1" parent="1" source="8Hs22Ey8dxyv864Q2J5C-92" target="8Hs22Ey8dxyv864Q2J5C-87">
          <mxGeometry relative="1" as="geometry" />
        </mxCell>
        <mxCell id="8Hs22Ey8dxyv864Q2J5C-92" value="Credit card&lt;br&gt;System" style="shape=umlActor;verticalLabelPosition=bottom;verticalAlign=top;html=1;" vertex="1" parent="1">
          <mxGeometry x="1380" y="467" width="30" height="60" as="geometry" />
        </mxCell>
        <mxCell id="8Hs22Ey8dxyv864Q2J5C-97" value="Calculate&lt;br&gt;shipping fee" style="ellipse;whiteSpace=wrap;html=1;" vertex="1" parent="1">
          <mxGeometry x="770" y="670" width="130" height="60" as="geometry" />
        </mxCell>
        <mxCell id="8Hs22Ey8dxyv864Q2J5C-100" style="edgeStyle=none;rounded=0;orthogonalLoop=1;jettySize=auto;html=1;startArrow=classic;startFill=1;endArrow=none;endFill=0;exitX=0;exitY=0.5;exitDx=0;exitDy=0;" edge="1" parent="1" source="8Hs22Ey8dxyv864Q2J5C-44" target="8Hs22Ey8dxyv864Q2J5C-97">
          <mxGeometry relative="1" as="geometry">
            <mxPoint x="930" y="664" as="sourcePoint" />
            <mxPoint x="890.9619407771252" y="688.7867965644036" as="targetPoint" />
          </mxGeometry>
        </mxCell>
        <mxCell id="8Hs22Ey8dxyv864Q2J5C-103" style="edgeStyle=none;rounded=0;orthogonalLoop=1;jettySize=auto;html=1;exitX=0.75;exitY=1;exitDx=0;exitDy=0;startArrow=classic;startFill=1;endArrow=none;endFill=0;" edge="1" parent="1" source="8Hs22Ey8dxyv864Q2J5C-102" target="8Hs22Ey8dxyv864Q2J5C-102">
          <mxGeometry relative="1" as="geometry" />
        </mxCell>
        <mxCell id="8Hs22Ey8dxyv864Q2J5C-115" style="edgeStyle=none;rounded=0;orthogonalLoop=1;jettySize=auto;html=1;entryX=1;entryY=0.5;entryDx=0;entryDy=0;fontSize=19;startArrow=none;startFill=0;endArrow=none;endFill=0;" edge="1" parent="1" source="8Hs22Ey8dxyv864Q2J5C-104" target="8Hs22Ey8dxyv864Q2J5C-112">
          <mxGeometry relative="1" as="geometry" />
        </mxCell>
        <mxCell id="8Hs22Ey8dxyv864Q2J5C-116" style="edgeStyle=none;rounded=0;orthogonalLoop=1;jettySize=auto;html=1;entryX=1;entryY=0.5;entryDx=0;entryDy=0;fontSize=19;startArrow=none;startFill=0;endArrow=none;endFill=0;" edge="1" parent="1" source="8Hs22Ey8dxyv864Q2J5C-104" target="8Hs22Ey8dxyv864Q2J5C-54">
          <mxGeometry relative="1" as="geometry" />
        </mxCell>
        <mxCell id="8Hs22Ey8dxyv864Q2J5C-104" value="ET supervisor" style="shape=umlActor;verticalLabelPosition=bottom;verticalAlign=top;html=1;" vertex="1" parent="1">
          <mxGeometry x="1380" y="200" width="30" height="60" as="geometry" />
        </mxCell>
        <mxCell id="8Hs22Ey8dxyv864Q2J5C-109" style="edgeStyle=none;rounded=0;orthogonalLoop=1;jettySize=auto;html=1;endArrow=block;endFill=0;" edge="1" parent="1">
          <mxGeometry relative="1" as="geometry">
            <mxPoint x="1480" y="300" as="targetPoint" />
            <mxPoint x="1440" y="240" as="sourcePoint" />
          </mxGeometry>
        </mxCell>
        <mxCell id="8Hs22Ey8dxyv864Q2J5C-110" value="ET employee" style="shape=umlActor;verticalLabelPosition=bottom;verticalAlign=top;html=1;movable=1;resizable=1;rotatable=1;deletable=1;editable=1;connectable=1;" vertex="1" parent="1">
          <mxGeometry x="1510" y="275" width="30" height="60" as="geometry" />
        </mxCell>
        <mxCell id="8Hs22Ey8dxyv864Q2J5C-111" style="edgeStyle=none;rounded=0;orthogonalLoop=1;jettySize=auto;html=1;endArrow=block;endFill=0;" edge="1" parent="1">
          <mxGeometry relative="1" as="geometry">
            <mxPoint x="1480" y="326" as="targetPoint" />
            <mxPoint x="1430" y="370" as="sourcePoint" />
          </mxGeometry>
        </mxCell>
        <mxCell id="8Hs22Ey8dxyv864Q2J5C-112" value="Create&lt;br&gt;staff account" style="ellipse;whiteSpace=wrap;html=1;" vertex="1" parent="1">
          <mxGeometry x="1145" y="82" width="130" height="60" as="geometry" />
        </mxCell>
      </root>
    </mxGraphModel>
  </diagram>
</mxfile>
